<svg xmlns="http://www.w3.org/2000/svg" width="25.036" height="31.62" viewBox="0 0 25.036 31.62">
  <g id="Group_42" data-name="Group 42" transform="translate(897.097 -1033.86)">
    <path id="Path_24" data-name="Path 24" d="M-884.6,1059.887q-4.976,0-9.952,0a1.5,1.5,0,0,1-1.367-2.171,1.913,1.913,0,0,1,.353-.47c.545-.558,1.094-1.113,1.655-1.655a.711.711,0,0,0,.239-.566q-.013-3.6,0-7.2a11.026,11.026,0,0,1,1.33-5.492,8.248,8.248,0,0,1,5.24-4.088.29.29,0,0,0,.26-.345,7.8,7.8,0,0,1,.02-1.006,2.242,2.242,0,0,1,2.385-2.025,2.254,2.254,0,0,1,2.125,2.181c.008.3.012.593,0,.889a.242.242,0,0,0,.212.286c3.7,1.059,5.684,3.65,6.409,7.312a13.222,13.222,0,0,1,.2,2.415c.025,2.361.011,4.723,0,7.084a.656.656,0,0,0,.211.52c.608.593,1.22,1.184,1.8,1.806a1.507,1.507,0,0,1-.784,2.494,2.267,2.267,0,0,1-.5.034Q-879.681,1059.888-884.6,1059.887Z" fill="none" stroke="#fff" stroke-width="2"/>
    <path id="Path_25" data-name="Path 25" d="M-753.326,1482.389h6.056a2.972,2.972,0,0,1-1.5,2.576,2.87,2.87,0,0,1-3.189-.078A2.928,2.928,0,0,1-753.326,1482.389Z" transform="translate(-134.273 -420.949)" fill="none" stroke="#fff" stroke-width="2"/>
  </g>
</svg>
