<svg xmlns="http://www.w3.org/2000/svg" width="46.495" height="47.787" viewBox="0 0 46.495 47.787">
  <g id="Group_659" data-name="Group 659" transform="translate(-107.814 -74.072)">
    <g id="Group_520" data-name="Group 520" transform="translate(108 74.222)">
      <g id="Group_519" data-name="Group 519" transform="translate(0 0)">
        <path id="Path_304" data-name="Path 304" d="M4631.609,2962.792a12.083,12.083,0,0,0,3.517-.5,15.654,15.654,0,0,0,10.688-10.636,16.141,16.141,0,0,0,.552-7.168c-.074-.612-.2-.755-.813-.859a13.164,13.164,0,0,1-7.536-3.887,13.3,13.3,0,0,1-3.515-12.69,1.379,1.379,0,0,0-.233-1.192,17.2,17.2,0,0,1-2.859-5.727c-.084-.312-.233-.588-.586-.588h-.021c-.359.011-.472.313-.537.61a12.607,12.607,0,0,1-2.169,4.743c-2.616,3.6-5.271,7.171-7.89,10.769-1.038,1.425-2.069,2.858-3.009,4.348a10.859,10.859,0,0,0-1.389,3.858c.608-.069,1.176-.123,1.741-.2a3.7,3.7,0,0,1,.494-.037c.765,0,1.148.337,1.455,1.213.37,1.059.724,2.126,1.088,3.189.171.5.349,1,.547,1.575.12-.214.206-.355.279-.5.84-1.679,1.675-3.361,2.521-5.038a5.228,5.228,0,0,1,.606-1.016,1.456,1.456,0,0,1,1.123-.534,1.492,1.492,0,0,1,1.243.681,3.3,3.3,0,0,1,.358.758c.517,1.522,1.021,3.05,1.531,4.574.65,1.935,1.3,3.869,1.983,5.9.117-.2.193-.317.256-.44.706-1.375,1.421-2.745,2.109-4.128.585-1.178,1.124-2.378,1.709-3.556a2.472,2.472,0,0,1,2.4-1.581q.207,0,.429.022c.089.009.177.014.262.014a1.772,1.772,0,0,0,1.2-.431,1.7,1.7,0,0,1,1.121-.437,2.013,2.013,0,0,1,.852.2,2.039,2.039,0,0,1-.823,3.871,1.822,1.822,0,0,1-1.157-.452,1.994,1.994,0,0,0-1.3-.41,4.016,4.016,0,0,0-.492.033c-.518.061-.546.621-.776.97a2.136,2.136,0,0,0-.1.208c-1.173,2.342-2.341,4.686-3.524,7.023a2.27,2.27,0,0,1-2.029,1.412h-.085a2.291,2.291,0,0,1-2.289-1.695c-.68-1.952-1.332-3.914-1.992-5.874-.337-1-.669-2-1.03-3.08-.365.735-.684,1.4-1.022,2.054-.477.918-.917,1.861-1.468,2.732a2.238,2.238,0,0,1-1.9,1.059,2.2,2.2,0,0,1-1.579-.671,3.759,3.759,0,0,1-.741-1.274c-.371-.95-.668-1.929-1.013-2.891-.038-.106-.188-.255-.278-.255h-.008c-.683.065-1.363.164-2.074.256,0,.156-.007.282,0,.407a18.566,18.566,0,0,0,1.077,5.078,15,15,0,0,0,3.625,5.756,15.557,15.557,0,0,0,7.4,3.9,17.326,17.326,0,0,0,4.064.527m0,2.119h0a19.307,19.307,0,0,1-4.562-.586,17.529,17.529,0,0,1-8.379-4.445,17.193,17.193,0,0,1-4.141-6.552,20.68,20.68,0,0,1-1.2-5.656c-.013-.171-.01-.321-.008-.442,0-.034,0-.071,0-.109v-.838l-.127.014.127-.672v-.366l.07-.009.333-1.772a12.8,12.8,0,0,1,1.681-4.6c.963-1.53,2.01-2.984,3.086-4.464,1.25-1.719,2.529-3.456,3.765-5.137,1.356-1.843,2.757-3.75,4.124-5.631a10.534,10.534,0,0,0,1.813-3.949,3.158,3.158,0,0,1,.5-1.189,2.573,2.573,0,0,1,2.041-1.086h.084a2.7,2.7,0,0,1,2.632,2.159,15.088,15.088,0,0,0,2.521,5.021,3.51,3.51,0,0,1,.6,2.9,11.451,11.451,0,0,0,9.333,14.039,3.026,3.026,0,0,1,1.8.879,3.1,3.1,0,0,1,.762,1.814,18.2,18.2,0,0,1-.649,8.1,19.3,19.3,0,0,1-4.482,7.5,17.753,17.753,0,0,1-7.6,4.483A14.27,14.27,0,0,1,4631.609,2964.911Z" transform="translate(-4613.197 -2917.424)" fill="#126883" stroke="#126883" stroke-width="0.3"/>
      </g>
      <path id="Path_305" data-name="Path 305" d="M4645.841,2919.2a10.562,10.562,0,0,0,.066,21.123h.107a10.561,10.561,0,0,0-.01-21.123h-.164m0-2.035h.183a12.579,12.579,0,0,1,8.767,21.591,12.772,12.772,0,0,1-3.989,2.637,12.372,12.372,0,0,1-4.787.965h-.129a12.548,12.548,0,0,1-4.905-1.051,12.7,12.7,0,0,1-4.024-2.782,12.6,12.6,0,0,1,4.129-20.393A12.158,12.158,0,0,1,4645.841,2917.168Z" transform="translate(-4612.433 -2916.448)" fill="#126883" stroke="#126883" stroke-width="0.3"/>
      <path id="speedometer" d="M4650.964,2926.16a.686.686,0,0,1-.25.939h0l-2.743,1.584a2.407,2.407,0,1,1-.687-1.19l2.744-1.584a.686.686,0,0,1,.938.25Zm-4.344,3.344a1.029,1.029,0,1,0-1.261.728,1.03,1.03,0,0,0,1.261-.728v0Z" transform="translate(-4612.255 -2915.893)" fill="#126883" stroke="#126883" stroke-width="0.3"/>
    </g>
  </g>
</svg>
