<svg xmlns="http://www.w3.org/2000/svg" width="25.537" height="47.987" viewBox="0 0 25.537 47.987">
  <g id="Group_661" data-name="Group 661" transform="translate(-190.75 -74.75)">
    <g id="Group_521" data-name="Group 521" transform="translate(191 75)">
      <path id="Path_306" data-name="Path 306" d="M4649.853,2940.5c-.135-.625-.276-1.27-.468-1.883a11.547,11.547,0,0,0-2.882-4.743,1.424,1.424,0,0,1-.457-1.11v-3.91c.007-4.751.007-5.576-.007-12.609a8.538,8.538,0,0,0-8.464-8.6h-.066a8.543,8.543,0,0,0-8.532,8.465v.072c-.01,6.354-.009,7.618-.007,11.321l.007,5.155a1.748,1.748,0,0,1-.517,1.3,12.539,12.539,0,0,0,6.858,20.974c.248.05.495.1.742.14l.35.063h2.172a3.227,3.227,0,0,1,.372-.09,12.555,12.555,0,0,0,10.79-9.751c.082-.348.149-.7.213-1.043l.091-.471v-2.4C4649.982,2941.086,4649.918,2940.791,4649.853,2940.5Zm-4.942,8.082,0,.006h-.007a9.49,9.49,0,0,1-4.761,3.145,8.995,8.995,0,0,1-9.938-3.049,9.441,9.441,0,0,1,1.091-13.289l.105-.09a1.441,1.441,0,0,0,.592-1.253c-.028-4.636-.038-13.448-.007-17.874a5.544,5.544,0,0,1,5.515-5.573h.032a5.543,5.543,0,0,1,5.542,5.515v.294c0,8.768,0,8.768-.01,17.025v.772a1.141,1.141,0,0,0,.462.976A9.523,9.523,0,0,1,4644.911,2948.578Z" transform="translate(-4625.014 -2907.644)" fill="#126883" stroke="#e8faff" stroke-width="0.5"/>
      <path id="Path_307" data-name="Path 307" d="M4638.548,2935.61v.006a.848.848,0,0,1-.627-.959c.009-7.342.007-9.045.007-13.921v-4.492h-.021c-.049-.885-.457-1.443-1.387-1.443a1.5,1.5,0,0,0-.256,0,1.46,1.46,0,0,0-1.312,1.441h-.012v.115c0,.019-.007.034-.005.054,0,.044-.008.089-.009.133a1.564,1.564,0,0,0,.014.179v.059c0,9.43,0,8.346.009,17.776a.972.972,0,0,1-.737,1.1,5.953,5.953,0,1,0,4.336-.046Zm-2.1,8.519h-.018a2.97,2.97,0,0,1-.01-5.939h.011a2.97,2.97,0,0,1,.017,5.939Z" transform="translate(-4623.926 -2906.221)" fill="#126883"/>
    </g>
  </g>
</svg>
