<svg xmlns="http://www.w3.org/2000/svg" width="28.94" height="19.106" viewBox="0 0 28.94 19.106">
  <path id="Path_27" data-name="Path 27" d="M-788.887,1212.656a.811.811,0,0,0-.094-.185.677.677,0,0,0-.89-.32,1.553,1.553,0,0,0-.262.141l-5.736,3.7-.059.035c0-.019,0-.037,0-.055,0-.125,0-.25,0-.375,0-.277,0-.563-.014-.846a2.867,2.867,0,0,0-2.431-2.623,4.2,4.2,0,0,0-.54-.034h-4.417c-3.111,0-6.328,0-9.491-.008a2.912,2.912,0,0,0-2.887,2.153,3.1,3.1,0,0,0-.1.738v11.271a2.893,2.893,0,0,0,2.821,2.89h.157c4.623,0,9.311,0,13.933,0h.078a2.893,2.893,0,0,0,2.015-.822,2.844,2.844,0,0,0,.877-2.11V1225.2l.059.036,1.571,1.011c1.336.859,2.717,1.747,4.059,2.626a.817.817,0,0,0,.4.21.812.812,0,0,0,.617-.115.814.814,0,0,0,.355-.517v-15.722Z" transform="translate(816.803 -1211.029)" fill="none" stroke="#fff" stroke-width="2"/>
</svg>
