<svg id="Group_904" data-name="Group 904" xmlns="http://www.w3.org/2000/svg" xmlns:xlink="http://www.w3.org/1999/xlink" width="25.123" height="33.727" viewBox="0 0 25.123 33.727">
  <defs>
    <clipPath id="clip-path">
      <rect id="Rectangle_435" data-name="Rectangle 435" width="25.123" height="33.727" fill="#80b6c7" stroke="#fff" stroke-width="0.5"/>
    </clipPath>
  </defs>
  <g id="Group_904-2" data-name="Group 904" clip-path="url(#clip-path)">
    <path id="Path_656" data-name="Path 656" d="M16.984,25.141c-2.613,3.318-5.539,2.885-7.19-.913a6.336,6.336,0,0,0,.084,4.359c.366,1.1.98,2.12,1.383,3.212a1.792,1.792,0,0,1,0,1.4,1.462,1.462,0,0,1-1.284.5c-4.711-1.593-8.428-4.312-9.7-9.408-.818-3.274.292-6.263,1.865-9.1a23,23,0,0,1,5.2-6.242,19.272,19.272,0,0,0,2.779-3.034,3.083,3.083,0,0,0,.221-3.509c-.357-.656-.623-1.346,0-2s1.344-.4,2.023-.139c3.975,1.5,7.026,7.258,6.064,11.389a8.6,8.6,0,0,0-.279,1.831c-.011.983.577,1.287,1.425.77a5.267,5.267,0,0,0,.851-.741c.742-.714,1.553-.7,2.084.172,3.676,6.045,4.328,13.886-3.787,18.665-.474.279-.968.526-1.459.777a1.376,1.376,0,0,1-1.776-.351c-.5-.552-.212-1.064.14-1.583a7.5,7.5,0,0,0,1.5-5.545c-.02-.125-.068-.245-.146-.514M7.56,29.871c-.074-.352-.118-.582-.172-.809-1.2-5.088.3-9.3,4.131-12.763.621-.56,1.292-.859,2.031-.27.7.557.38,1.18.092,1.855a25.734,25.734,0,0,0-1.366,3.767,3.776,3.776,0,0,0,.205,2.106,1.136,1.136,0,0,0,2.183.175c.3-.511.286-1.195.535-1.746.221-.489.526-1.119.95-1.282a1.737,1.737,0,0,1,1.409.5,6.392,6.392,0,0,1,2.056,4.065c.089.974.016,1.962.016,2.978,3.569-2.772,3.685-8.06,1.424-12.086-.34.139-.678.3-1.03.417a2.949,2.949,0,0,1-4.2-2.558,8.23,8.23,0,0,1-.007-1.646,28.326,28.326,0,0,0,.237-2.984A6.531,6.531,0,0,0,13.3,4.305a7.484,7.484,0,0,1-2.763,4.859q-.995.905-1.96,1.843A22.247,22.247,0,0,0,3.36,18.386c-1.931,4.641-.382,8.978,4.2,11.485" transform="translate(0 0)" fill="#80b6c7" stroke="#fff" stroke-width="0.5"/>
  </g>
</svg>
