<svg id="Rectangle_323" data-name="Rectangle 323" xmlns="http://www.w3.org/2000/svg" width="12.877" height="12.876" viewBox="0 0 12.877 12.876">
  <g id="Group_691" data-name="Group 691">
    <path id="Path_399" data-name="Path 399" d="M9072.479,1990.053h-7.056a2.472,2.472,0,0,1-2.47-2.468v-7.055a3.356,3.356,0,0,1,3.352-3.352h6.174a3.357,3.357,0,0,1,3.352,3.352v6.173A3.355,3.355,0,0,1,9072.479,1990.053Zm-6.174-10.406a.883.883,0,0,0-.882.883v7.055h7.056a.883.883,0,0,0,.881-.882v-6.173a.883.883,0,0,0-.881-.883Z" transform="translate(-9062.953 -1977.177)" fill="#1fbbeb"/>
  </g>
</svg>
