<svg xmlns="http://www.w3.org/2000/svg" width="24.314" height="24.321" viewBox="0 0 24.314 24.321">
  <g id="Group_663" data-name="Group 663" transform="translate(-517.248 -79.287)">
    <g id="Group_513" data-name="Group 513" transform="translate(517.498 79.537)">
      <g id="Group_254" data-name="Group 254">
        <path id="Path_173" data-name="Path 173" d="M6441.667,716.981a11.911,11.911,0,1,1-11.9,11.843A11.906,11.906,0,0,1,6441.667,716.981Zm10.444,11.9a10.441,10.441,0,1,0-10.433,10.452A10.464,10.464,0,0,0,6452.111,728.886Z" transform="translate(-6429.764 -716.981)" fill="#1fbbeb" stroke="#1fbbeb" stroke-width="0.5"/>
        <path id="Path_174" data-name="Path 174" d="M6582.894,759.179c0-.957,0-1.915,0-2.872,0-.422.267-.683.619-.62.3.053.449.264.45.636v4.1c0,.453-.011.906.007,1.358a.583.583,0,0,0,.15.358c.97.986,1.952,1.962,2.931,2.94a.543.543,0,0,1,.186.562.456.456,0,0,1-.418.374.71.71,0,0,1-.47-.15q-1.66-1.626-3.285-3.287a.787.787,0,0,1-.162-.5C6582.886,761.112,6582.894,760.146,6582.894,759.179Z" transform="translate(-6571.73 -749.815)" fill="#1fbbeb" stroke="#1fbbeb" stroke-width="1"/>
      </g>
    </g>
  </g>
</svg>
