<svg xmlns="http://www.w3.org/2000/svg" width="353.63" height="67.298" viewBox="0 0 353.63 67.298">
  <g id="Group_186" data-name="Group 186" transform="translate(-14131.802 3289.777)">
    <path id="Path_152" data-name="Path 152" d="M6244.273,716.824c-.587,3.959-1.165,7.918-1.761,11.876-1.177,7.8-2.229,15.621-3.637,23.378a14.555,14.555,0,0,1-2.886,5.716c-1.615,2.162-3.613,1.687-4.748-.805-1.111-2.44-2.24-4.873-3.436-7.272a16.972,16.972,0,0,0-1.867-2.975c-1.114-1.405-1.963-1.417-2.854.1A30.316,30.316,0,0,0,6220.7,752a2.969,2.969,0,0,1-3.28,2.331c-6.716-.1-13.434-.061-20.151-.017-1.145.007-1.556-.312-1.574-1.509-.018-1.276.415-1.612,1.647-1.6,6.213.054,12.427-.01,18.64.053a2.1,2.1,0,0,0,2.279-1.6,23.731,23.731,0,0,1,3.1-5.5,3.767,3.767,0,0,1,6.131-.18,31.883,31.883,0,0,1,3.578,5.421c1.029,1.771,1.883,3.644,2.919,5.68a13.458,13.458,0,0,0,2.407-6.308c1.9-12.67,3.766-25.347,5.663-38.018.131-.877.449-1.725.646-2.593a1.789,1.789,0,0,1,2.338-1.553,2.993,2.993,0,0,1,1.718,1.865,53.95,53.95,0,0,1,.757,5.819q2.517,21.758,5.036,43.516a1,1,0,0,0,.494.776,41.223,41.223,0,0,1,.809-5.833,11.712,11.712,0,0,1,2.188-4.007,2.079,2.079,0,0,1,2.895-.335c.556.376,1.143.71,1.677,1.114,2.23,1.682,2.33,1.817,4.49.049a34.713,34.713,0,0,0,4.222-4.5c.941-1.1,1.651-2.4,2.594-3.5,2.046-2.39,4.435-2.486,6.378,0a30.512,30.512,0,0,1,3.889,6.432c.936,2.125,2.316,2.722,4.444,2.654,9.231-.3,18.465-.519,27.7-.765a3.572,3.572,0,0,1,2.291,1.734c.115.931-.261,1.291-1.215,1.315-10.8.273-21.6.6-32.4.8a3.066,3.066,0,0,1-2.081-1.488c-1.3-2.217-2.371-4.563-3.563-6.842a14.765,14.765,0,0,0-1.05-1.516c-.763-1.094-1.517-1.2-2.323-.025-.855,1.245-1.745,2.467-2.625,3.694a20.122,20.122,0,0,1-6.871,6.02,3.549,3.549,0,0,1-4.03-.27,13.032,13.032,0,0,1-1.453-1.137c-.823-.7-1.475-.581-1.724.473a51.039,51.039,0,0,0-.983,5.085c-.542,4.161-1.01,8.331-1.475,12.5-.136,1.232-.4,2.143-1.977,2.083-1.474-.056-1.854-.811-2-2.111q-2.969-26.1-6.007-52.191a10.845,10.845,0,0,0-.278-1.21Z" transform="translate(7936.104 -3996.286)" fill="#1fbbeb"/>
    <path id="Path_153" data-name="Path 153" d="M6268.075,716.824c.586,3.959,1.164,7.919,1.761,11.876,1.176,7.8,2.228,15.621,3.636,23.378a14.536,14.536,0,0,0,2.886,5.716c1.614,2.162,3.612,1.687,4.747-.805,1.111-2.44,2.24-4.873,3.435-7.272a17,17,0,0,1,1.868-2.975c1.114-1.405,1.963-1.417,2.853.1a30.271,30.271,0,0,1,2.382,5.159,2.97,2.97,0,0,0,3.28,2.331c6.716-.1,13.434-.061,20.151-.018,1.146.007,1.556-.312,1.574-1.509.018-1.276-.415-1.612-1.647-1.6-6.213.054-12.427-.01-18.639.053a2.1,2.1,0,0,1-2.279-1.6,23.717,23.717,0,0,0-3.1-5.5,3.767,3.767,0,0,0-6.131-.18,31.874,31.874,0,0,0-3.578,5.421c-1.03,1.771-1.883,3.644-2.919,5.68a13.462,13.462,0,0,1-2.407-6.308c-1.9-12.67-3.766-25.346-5.664-38.018-.131-.877-.448-1.725-.646-2.593a1.789,1.789,0,0,0-2.338-1.553,3,3,0,0,0-1.719,1.865,53.827,53.827,0,0,0-.756,5.819q-2.518,21.758-5.036,43.516a1,1,0,0,1-.495.776,41.152,41.152,0,0,0-.809-5.833,11.693,11.693,0,0,0-2.187-4.007,2.079,2.079,0,0,0-2.895-.335c-.556.376-1.143.711-1.677,1.114-2.23,1.682-2.33,1.817-4.49.049a34.706,34.706,0,0,1-4.222-4.5c-.941-1.1-1.651-2.4-2.594-3.5-2.045-2.39-4.435-2.486-6.378,0a30.518,30.518,0,0,0-3.89,6.432c-.936,2.125-2.317,2.722-4.444,2.654-9.231-.3-18.465-.519-27.7-.765a3.573,3.573,0,0,0-2.291,1.734c-.115.931.262,1.291,1.215,1.315,10.8.273,21.6.6,32.4.8a3.067,3.067,0,0,0,2.082-1.488c1.3-2.217,2.371-4.563,3.563-6.842a14.748,14.748,0,0,1,1.05-1.516c.763-1.094,1.517-1.2,2.322-.025.856,1.245,1.746,2.467,2.626,3.694a20.126,20.126,0,0,0,6.871,6.02,3.55,3.55,0,0,0,4.03-.269,12.977,12.977,0,0,0,1.452-1.137c.825-.7,1.476-.581,1.724.473a51.029,51.029,0,0,1,.983,5.085c.542,4.161,1.011,8.331,1.475,12.5.137,1.232.4,2.143,1.978,2.083,1.474-.056,1.854-.811,2-2.111q2.968-26.1,6.007-52.191a10.845,10.845,0,0,1,.278-1.21Z" transform="translate(8050.952 -3996.286)" fill="#1fbbeb"/>
    <path id="Path_154" data-name="Path 154" d="M6268.041,716.824c.587,3.959,1.165,7.919,1.761,11.876,1.177,7.8,2.229,15.621,3.637,23.378a14.542,14.542,0,0,0,2.886,5.716c1.614,2.162,3.612,1.687,4.747-.805,1.111-2.44,2.24-4.873,3.435-7.272a17.031,17.031,0,0,1,1.867-2.975c1.115-1.405,1.964-1.417,2.854.1A30.3,30.3,0,0,1,6291.61,752a2.971,2.971,0,0,0,3.281,2.331c6.716-.1,13.434-.061,20.151-.018,1.145.007,1.556-.312,1.573-1.509.018-1.276-.415-1.612-1.646-1.6-6.213.054-12.427-.01-18.64.053a2.1,2.1,0,0,1-2.28-1.6,23.7,23.7,0,0,0-3.1-5.5,3.766,3.766,0,0,0-6.13-.18,31.876,31.876,0,0,0-3.578,5.421c-1.03,1.771-1.882,3.644-2.919,5.68a13.463,13.463,0,0,1-2.407-6.308c-1.9-12.67-3.766-25.346-5.664-38.018-.131-.877-.448-1.725-.646-2.593a1.79,1.79,0,0,0-2.339-1.553,3,3,0,0,0-1.718,1.865,53.827,53.827,0,0,0-.757,5.819q-2.517,21.758-5.037,43.516a1,1,0,0,1-.494.776,41.152,41.152,0,0,0-.809-5.833,11.7,11.7,0,0,0-2.188-4.007,2.079,2.079,0,0,0-2.895-.335c-.556.376-1.142.711-1.676,1.114-2.23,1.682-2.33,1.817-4.49.049a34.739,34.739,0,0,1-4.222-4.5c-.941-1.1-1.651-2.4-2.595-3.5-2.044-2.39-4.434-2.486-6.377,0a30.477,30.477,0,0,0-3.89,6.432c-.937,2.125-2.316,2.722-4.444,2.654-9.231-.3-19.071-.666-28.3-.912-.662-.018-1.618,1.342-1.684,1.88-.116.931-.37,1.19.584,1.215,10.8.273,22.229.706,33.03.9a3.063,3.063,0,0,0,2.081-1.488c1.3-2.217,2.372-4.563,3.564-6.842a14.6,14.6,0,0,1,1.05-1.516c.762-1.094,1.516-1.2,2.322-.025.856,1.245,1.746,2.467,2.625,3.694a20.117,20.117,0,0,0,6.871,6.02,3.549,3.549,0,0,0,4.03-.269,12.894,12.894,0,0,0,1.452-1.137c.825-.7,1.476-.581,1.724.473a51.453,51.453,0,0,1,.984,5.085c.542,4.161,1.01,8.331,1.474,12.5.137,1.232.4,2.143,1.978,2.083,1.474-.056,1.854-.811,2-2.111q2.969-26.1,6.006-52.191a11.069,11.069,0,0,1,.278-1.21Z" transform="translate(8168.816 -3994.794)" fill="#1fbbeb"/>
  </g>
</svg>
