<svg xmlns="http://www.w3.org/2000/svg" width="30.482" height="22.596" viewBox="0 0 30.482 22.596"><g transform="translate(-660.5 -85.03)"><g transform="translate(661 85.53)"><path d="M25.756,24.61H3.726A3.73,3.73,0,0,0,0,28.336V42.48a3.73,3.73,0,0,0,3.726,3.726h22.03a3.73,3.73,0,0,0,3.726-3.726V28.336A3.73,3.73,0,0,0,25.756,24.61Zm-.582,2.4L14.741,35.073,4.308,27.013ZM25.756,43.8H3.726A1.324,1.324,0,0,1,2.4,42.48v-13.9l11.6,8.963a1.2,1.2,0,0,0,1.469,0l11.6-8.963v13.9A1.324,1.324,0,0,1,25.756,43.8Z" transform="translate(0 -24.61)" fill="#c7e3fe" stroke="#fff" stroke-width="1"/></g></g></svg>