<svg xmlns="http://www.w3.org/2000/svg" width="45.819" height="42.238" viewBox="0 0 45.819 42.238">
  <g id="Group_455" data-name="Group 455" transform="translate(-254.25 -456.439)">
    <path id="Path_239" data-name="Path 239" d="M6046.946,341.418c-.036.318-.068.636-.107.953a13.667,13.667,0,0,1-2.528,6.42,22.051,22.051,0,0,1-2.377,2.63q-8.087,8.082-16.172,16.165a1.927,1.927,0,0,1-.848.6,1.434,1.434,0,0,1-1.447-.366q-.987-.963-1.968-1.931l-8.565-8.416q-3.987-3.917-7.969-7.838a9.446,9.446,0,0,1-1.564-2.166,13.877,13.877,0,0,1-1.624-5.048c-.051-.405-.078-.814-.117-1.22-.006-.055-.021-.11-.032-.165v-1.662c.012-.055.027-.109.034-.165.051-.405.084-.814.152-1.216a13.714,13.714,0,0,1,11.126-11.263,13.415,13.415,0,0,1,4.934.015,13.623,13.623,0,0,1,6.06,2.774c.2.163.4.333.607.5l.147-.112a13.612,13.612,0,0,1,7.89-2.947,13.332,13.332,0,0,1,6.819,1.466,13.56,13.56,0,0,1,5.878,5.708,13.417,13.417,0,0,1,1.564,4.966c.042.38.072.762.107,1.142ZM6024.5,364.776c.048-.045.076-.071.1-.1q8.1-8.1,16.2-16.21a10.826,10.826,0,0,0,3.169-6.384,10.855,10.855,0,0,0-4.065-9.926,10.782,10.782,0,0,0-5.363-2.236,10.638,10.638,0,0,0-4.6.419,10.811,10.811,0,0,0-4.358,2.615,1.458,1.458,0,0,1-2.177-.017,19.485,19.485,0,0,0-1.523-1.349,10.51,10.51,0,0,0-5.965-2.175,10.349,10.349,0,0,0-4.542.749,10.676,10.676,0,0,0-6.417,6.992,10.413,10.413,0,0,0-.2,5.461,10.223,10.223,0,0,0,2.65,5.045c2.473,2.528,4.99,5.013,7.491,7.514l7.622,7.624C6023.182,363.456,6023.835,364.111,6024.5,364.776Z" transform="translate(-5747.127 130.175)" fill="#126883" stroke="#e8faff" stroke-width="0.5"/>
    <path id="Path_240" data-name="Path 240" d="M6249.014,665.23c.259-.547.512-1.078.765-1.609s.47-1.051.749-1.552a1.937,1.937,0,0,1,1.741-1.042c1.19-.02,2.382-.008,3.573,0a1.131,1.131,0,0,1,.038,2.261c-1.082.015-2.164.01-3.246,0a.249.249,0,0,0-.265.17c-.633,1.334-1.262,2.67-1.914,3.995a1.6,1.6,0,0,1-1.288.965,1.432,1.432,0,0,1-1.376-.6,5.9,5.9,0,0,1-.551-1c-.829-1.756-1.649-3.516-2.481-5.29-.027.036-.052.063-.07.093l-1.208,1.929a2.217,2.217,0,0,1-1.995,1.106h-6.12a1.162,1.162,0,0,1-1.1-.718,1.142,1.142,0,0,1,.292-1.255,1.05,1.05,0,0,1,.742-.294c.8,0,1.607,0,2.412,0q1.854,0,3.708,0a.182.182,0,0,0,.177-.1c.542-.872,1.089-1.74,1.629-2.613a2.194,2.194,0,0,1,1.019-.964,1.621,1.621,0,0,1,2.045.773c.317.594.588,1.212.875,1.822q.9,1.9,1.788,3.808C6248.964,665.148,6248.985,665.18,6249.014,665.23Z" transform="translate(-5967.85 -188.044)" fill="#126883"/>
  </g>
</svg>
