<svg id="Group_915" data-name="Group 915" xmlns="http://www.w3.org/2000/svg" xmlns:xlink="http://www.w3.org/1999/xlink" width="27.733" height="25.659" viewBox="0 0 27.733 25.659">
  <defs>
    <clipPath id="clip-path">
      <rect id="Rectangle_445" data-name="Rectangle 445" width="27.733" height="25.659" fill="#f7521e"/>
    </clipPath>
  </defs>
  <g id="Group_915-2" data-name="Group 915" clip-path="url(#clip-path)">
    <path id="Path_680" data-name="Path 680" d="M3.418,11.166l-.835.7c-.3.251-.6.51-.906.753A1.042,1.042,0,0,1,.182,11.2a1.647,1.647,0,0,1,.3-.3Q3.888,8.037,7.3,5.181,10.233,2.727,13.165.274a1.042,1.042,0,0,1,1.423.014L22.36,6.794q2.495,2.088,4.988,4.178A1.047,1.047,0,1,1,26,12.578c-.5-.412-1-.834-1.5-1.252-.049-.041-.1-.08-.186-.15v.252q0,4.994,0,9.988A4.237,4.237,0,0,1,20.76,25.6a4.675,4.675,0,0,1-.731.05q-4.521.008-9.041.008c-1.178,0-2.357,0-3.535-.013A4.226,4.226,0,0,1,3.46,22.035a5.584,5.584,0,0,1-.04-.654q0-4.965,0-9.93Zm14.687,12.4c.654,0,1.284,0,1.914,0a2.162,2.162,0,0,0,2.216-2.224q0-5.852,0-11.7a.419.419,0,0,0-.169-.358q-3.408-2.845-6.811-5.7L13.868,2.418c-.052.042-.092.074-.131.106L10.761,5.015Q8.223,7.14,5.682,9.262a.453.453,0,0,0-.181.389q.007,5.852,0,11.7a2.148,2.148,0,0,0,2.2,2.209c.573,0,1.146,0,1.719,0,.062,0,.123-.007.2-.011v-.263q0-3.911,0-7.823a1.027,1.027,0,0,1,1.1-1.1c2.073,0,4.146.014,6.219-.008a1.115,1.115,0,0,1,1.169,1.16c-.02,2.594-.008,5.189-.008,7.784Zm-6.376-.014h4.278V16.469H11.729Z" transform="translate(0 0)" fill="#f7521e"/>
  </g>
</svg>
