<svg xmlns="http://www.w3.org/2000/svg" xmlns:xlink="http://www.w3.org/1999/xlink" width="29.483" height="29.478" viewBox="0 0 29.483 29.478">
  <defs>
    <clipPath id="clip-path">
      <rect id="Rectangle_436" data-name="Rectangle 436" width="29.483" height="29.478" transform="translate(0 0)" fill="#80b6c7"/>
    </clipPath>
  </defs>
  <g id="Group_905" data-name="Group 905" transform="translate(0 0.003)">
    <g id="Group_905-2" data-name="Group 905" transform="translate(0 -0.003)" clip-path="url(#clip-path)">
      <path id="Path_657" data-name="Path 657" d="M27.339,14.333c-.227-.288-.43-.555-.644-.814q-.762-.918-1.536-1.827a.608.608,0,0,1-.139-.306,10.888,10.888,0,0,0-2.388-5.051,11.523,11.523,0,0,0-9.79-4.2,11.189,11.189,0,0,0-5.5,1.855,11.421,11.421,0,0,0-4.975,7.25,10.955,10.955,0,0,0-.238,3.114A11.571,11.571,0,0,0,11.234,25a11.849,11.849,0,0,0,3.1.243c.221-.009.442-.038.633-.056l.8,1.988A13.51,13.51,0,0,1,2.3,21.242a13.674,13.674,0,1,1,25.043-6.909" transform="translate(0 0.003)" fill="#80b6c7"/>
      <path id="Path_658" data-name="Path 658" d="M612.539,453.25c.6.721,1.206,1.421,1.785,2.142a35.509,35.509,0,0,1,3.011,4.283,17.827,17.827,0,0,1,1.081,2.15,5.407,5.407,0,0,1,.026,4.171,6.112,6.112,0,0,1-4.58,3.973,6.045,6.045,0,0,1-5.372-1.318,6.2,6.2,0,0,1-2.211-3.9,5.432,5.432,0,0,1,.425-3.084,21.314,21.314,0,0,1,2.053-3.621,46.212,46.212,0,0,1,3.539-4.517c.076-.086.151-.173.242-.276m0,3.289c-.046.066-.067.1-.094.133a28.919,28.919,0,0,0-2.326,3.124,16.1,16.1,0,0,0-1.472,2.71,3.635,3.635,0,0,0-.259,2.1,4.194,4.194,0,0,0,4.76,3.368,4.059,4.059,0,0,0,3.329-2.7,3.275,3.275,0,0,0,.21-1.888,6.407,6.407,0,0,0-.539-1.493,22.071,22.071,0,0,0-2.087-3.38c-.484-.658-1-1.3-1.522-1.975" transform="translate(-589.364 -440.654)" fill="#80b6c7"/>
      <path id="Path_659" data-name="Path 659" d="M165.4,152.678c-.032.036-.052.061-.074.083q-.717.716-1.434,1.432a.16.16,0,0,1-.192.048,7.688,7.688,0,0,0-2.686-.379,7.347,7.347,0,0,0-6.895,5.844,7,7,0,0,0-.151,1.514,1.051,1.051,0,0,1-2.1.036A9.331,9.331,0,0,1,156,153.4a8.891,8.891,0,0,1,4.025-1.562,9.434,9.434,0,0,1,5.207.755c.053.024.1.051.166.081" transform="translate(-147.649 -147.535)" fill="#80b6c7"/>
      <path id="Path_660" data-name="Path 660" d="M454.331,234.379a.965.965,0,0,1,.274-.679c.047-.051.1-.1.145-.149l6.221-6.222a1.048,1.048,0,0,1,1.453-.037,1.03,1.03,0,0,1,.118,1.424,2.039,2.039,0,0,1-.157.175l-6.26,6.261a1.071,1.071,0,0,1-1.169.218,1.057,1.057,0,0,1-.625-.992" transform="translate(-441.705 -220.709)" fill="#80b6c7"/>
    </g>
  </g>
</svg>
