<svg id="Group_903" data-name="Group 903" xmlns="http://www.w3.org/2000/svg" xmlns:xlink="http://www.w3.org/1999/xlink" width="31.761" height="31.762" viewBox="0 0 31.761 31.762">
  <defs>
    <clipPath id="clip-path">
      <rect id="Rectangle_434" data-name="Rectangle 434" width="31.761" height="31.762" fill="#80b6c7"/>
    </clipPath>
  </defs>
  <g id="Group_903-2" data-name="Group 903" clip-path="url(#clip-path)">
    <path id="Path_647" data-name="Path 647" d="M94.218,89.7a4.526,4.526,0,1,1-4.534-4.534A4.483,4.483,0,0,1,94.218,89.7m-4.559,2.253a2.261,2.261,0,1,0-2.228-2.26,2.3,2.3,0,0,0,2.228,2.26" transform="translate(-73.811 -73.816)" fill="#80b6c7"/>
    <path id="Path_648" data-name="Path 648" d="M112.7,4.557c0,1.059.013,2.118,0,3.177-.013.862-.489,1.383-1.2,1.361-.672-.021-1.115-.543-1.119-1.374q-.014-3.177,0-6.354c0-.822.459-1.349,1.132-1.367.7-.019,1.174.519,1.186,1.38.014,1.059,0,2.118,0,3.177" transform="translate(-95.658 0)" fill="#80b6c7"/>
    <path id="Path_649" data-name="Path 649" d="M4.531,112.7c-1.037,0-2.074.006-3.111,0-.871-.007-1.41-.452-1.42-1.147s.528-1.168,1.394-1.172q3.143-.015,6.287,0c.884,0,1.4.446,1.414,1.147s-.517,1.161-1.387,1.173c-1.059.014-2.118,0-3.177,0" transform="translate(0 -95.652)" fill="#80b6c7"/>
    <path id="Path_650" data-name="Path 650" d="M174.566,110.378c1.062,0,2.125-.012,3.187,0,.827.012,1.349.47,1.358,1.147a1.194,1.194,0,0,1-1.335,1.169q-3.22.02-6.44,0a1.165,1.165,0,1,1-.023-2.313c1.084-.019,2.169,0,3.253-.005" transform="translate(-147.35 -95.659)" fill="#80b6c7"/>
    <path id="Path_651" data-name="Path 651" d="M112.7,174.574c0,1.059.01,2.118,0,3.177-.011.829-.456,1.347-1.133,1.366-.7.019-1.181-.526-1.185-1.38q-.014-3.177,0-6.354c0-.831.455-1.348,1.132-1.36.706-.012,1.172.508,1.185,1.375.016,1.059,0,2.118,0,3.177" transform="translate(-95.656 -147.355)" fill="#80b6c7"/>
    <path id="Path_652" data-name="Path 652" d="M39.621,38.4a3.8,3.8,0,0,1-.817.929,1.1,1.1,0,0,1-1.377-.309c-1.26-1.274-2.532-2.537-3.8-3.8-.282-.282-.572-.555-.841-.848a1.146,1.146,0,0,1-.07-1.661,1.125,1.125,0,0,1,1.659.018q2.391,2.349,4.738,4.741a4.412,4.412,0,0,1,.507.934" transform="translate(-28.075 -28.042)" fill="#80b6c7"/>
    <path id="Path_653" data-name="Path 653" d="M153.615,39.7a4.133,4.133,0,0,1-.933-.816,1.066,1.066,0,0,1,.241-1.335c.588-.6,1.189-1.188,1.783-1.782.939-.938,1.873-1.879,2.816-2.812a1.166,1.166,0,1,1,1.632,1.611c-1.5,1.507-2.99,3.014-4.506,4.5a5.875,5.875,0,0,1-1.033.634" transform="translate(-132.203 -28.134)" fill="#80b6c7"/>
    <path id="Path_654" data-name="Path 654" d="M39.651,153.636a5.629,5.629,0,0,1-.606,1.007c-1.5,1.533-3.023,3.046-4.545,4.558a1.178,1.178,0,0,1-1.757.162,1.167,1.167,0,0,1,.111-1.756c1.526-1.54,3.066-3.065,4.593-4.6a1.088,1.088,0,0,1,1.323-.3c.342.183.565.586.88.935" transform="translate(-28.077 -132.242)" fill="#80b6c7"/>
    <path id="Path_655" data-name="Path 655" d="M159.96,158.688a4.728,4.728,0,0,1-.875.962,1.041,1.041,0,0,1-1.321-.277q-1.457-1.451-2.912-2.906c-.563-.562-1.13-1.122-1.689-1.689a1.164,1.164,0,1,1,1.618-1.637c1.5,1.5,3.009,3,4.5,4.512a7.1,7.1,0,0,1,.683,1.034" transform="translate(-132.339 -132.326)" fill="#80b6c7"/>
  </g>
</svg>
