<svg xmlns="http://www.w3.org/2000/svg" width="30.776" height="25.911" viewBox="0 0 30.776 25.911">
  <path id="Path_152" data-name="Path 152" d="M6376.882,780.8c.655-.474,1.218-.851,1.74-1.279a.842.842,0,0,0,.229-.586c.014-2.952.008-5.9.011-8.858,0-.782.469-1.167,1.115-.934a.8.8,0,0,1,.5.869q0,2.4,0,4.8c0,1.369.012,2.738-.009,4.107a.76.76,0,0,0,.381.726c.517.344,1.012.721,1.579,1.13.011-.231.025-.387.025-.543,0-1.105-.021-2.211.007-3.315a2.851,2.851,0,0,1,4.1-2.638,13.092,13.092,0,0,1,6.225,5.51,16.983,16.983,0,0,1,2.243,8.009,7.2,7.2,0,0,1-.859,4.14,6.265,6.265,0,0,1-11.527-1.987,10.913,10.913,0,0,1-.15-1.72c-.019-1.715-.014-3.431,0-5.146a.771.771,0,0,0-.366-.737c-.711-.478-1.406-.982-2.088-1.5a.5.5,0,0,0-.726-.015c-.69.535-1.4,1.043-2.126,1.532a.737.737,0,0,0-.345.7c0,2.045.05,4.093-.055,6.133a6.232,6.232,0,0,1-6.654,5.785,6.312,6.312,0,0,1-5.863-6.368,18.857,18.857,0,0,1,1.044-6.31,13.291,13.291,0,0,1,7.4-8.009,2.871,2.871,0,0,1,4.168,2.756C6376.891,778.262,6376.882,779.476,6376.882,780.8Zm-5.017,3.513-.028-.111h-.479c-.809,0-1.617.009-2.426,0-.552-.009-.859-.29-.86-.748s.314-.713.872-.735c.1,0,.2,0,.3,0,1.3,0,2.609-.037,3.91.015a2.757,2.757,0,0,0,1.831-.557.737.737,0,0,0,.354-.686c-.016-1.435-.061-2.873.01-4.3a1.494,1.494,0,0,0-2.258-1.486,11.693,11.693,0,0,0-5.4,4.909,15.842,15.842,0,0,0-1.974,7.923,4.609,4.609,0,0,0,2.39,4.315,4.787,4.787,0,0,0,7.2-3.94c.053-1.366,0-2.737-.012-4.105,0-.338,0-.677,0-1.113-.592.419-1.116.758-1.6,1.148a.9.9,0,0,0-.3.6c-.03,1.071-.012,2.144-.015,3.216a6.959,6.959,0,0,1-.03.839.658.658,0,0,1-.723.6.648.648,0,0,1-.689-.637c-.015-.2-.012-.4-.012-.593,0-.9,0-1.8,0-2.774-.209.134-.348.215-.479.307-1.011.712-2.017,1.432-3.035,2.135a.723.723,0,0,1-1.051-.133.744.744,0,0,1,.2-1.01c.087-.075.186-.137.28-.2Zm12.081-.595c-.016.172-.032.264-.032.357,0,1.567-.021,3.134.007,4.7a4.8,4.8,0,0,0,7.094,4.141,4.434,4.434,0,0,0,2.453-3.92,16.021,16.021,0,0,0-1.419-7.362,11.576,11.576,0,0,0-6.077-6.015,1.379,1.379,0,0,0-2.057,1.358c-.009,1.5,0,3,0,4.5,0,.13-.021.334.048.378.5.317.87.866,1.559.861,1.534-.011,3.069-.005,4.6,0,.68,0,1.022.261,1.009.752s-.34.731-1.031.733c-.544,0-1.089,0-1.633,0h-1.146c1.254,1.023,2.527,1.93,3.8,2.838a5.578,5.578,0,0,1,.517.38.745.745,0,0,1,.2,1.016.726.726,0,0,1-1.052.146c-.225-.136-.435-.3-.651-.45l-2.857-2.014v.577c0,.874.013,1.748-.006,2.622-.013.606-.492.976-.977.773a.8.8,0,0,1-.492-.833q.015-1.9,0-3.81c0-.165-.027-.4-.134-.483C6385.13,784.538,6384.561,784.154,6383.946,783.716Z" transform="translate(-6364.271 -769.074)" fill="#126883"/>
</svg>
