<svg xmlns="http://www.w3.org/2000/svg" width="29.897" height="30.206" viewBox="0 0 29.897 30.206">
  <g id="Group_517" data-name="Group 517" transform="translate(0.35 0.358)">
    <path id="Path_301" data-name="Path 301" d="M4411.1,2727.211c-3.354,0-6.707.007-10.06,0a4.425,4.425,0,0,1-4.43-3.553,4.542,4.542,0,0,1-.094-.934q-.009-7.463,0-14.926a4.283,4.283,0,0,1,2.312-3.966q5.056-2.807,10.146-5.552a4.285,4.285,0,0,1,4.274.015q5,2.691,9.982,5.407a4.436,4.436,0,0,1,2.477,4.178q-.005,7.387,0,14.774a4.42,4.42,0,0,1-3.46,4.443,5.492,5.492,0,0,1-1.205.112Q4416.068,2727.219,4411.1,2727.211Zm-.006-1.946q5,0,10,0a2.5,2.5,0,0,0,2.652-2.645q0-7.418,0-14.835a2.465,2.465,0,0,0-1.354-2.311q-5.037-2.746-10.083-5.477a2.426,2.426,0,0,0-2.438,0q-5.03,2.726-10.056,5.463a2.445,2.445,0,0,0-1.355,2.279q-.006,7.478,0,14.956a2.868,2.868,0,0,0,.1.749,2.486,2.486,0,0,0,2.534,1.82Q4406.093,2725.27,4411.093,2725.265Z" transform="translate(-4396.509 -2697.714)" fill="#1fbbeb" stroke="#1fbbeb" stroke-width="0.7"/>
    <g id="Rectangle_308" data-name="Rectangle 308" transform="translate(10.211 14.608)" fill="none" stroke="#1fbbeb" stroke-width="2.5">
      <rect width="9.447" height="15.115" rx="1" stroke="none"/>
      <rect x="1.25" y="1.25" width="6.947" height="12.615" rx="0.25" fill="none"/>
    </g>
  </g>
</svg>
