<svg xmlns="http://www.w3.org/2000/svg" xmlns:xlink="http://www.w3.org/1999/xlink" width="27" height="25" viewBox="0 0 27 25">
  <defs>
    <clipPath id="clip-path">
      <rect id="Rectangle_439" data-name="Rectangle 439" width="27" height="25" transform="translate(-0.129 -0.292)" fill="none" stroke="#80b6c7" stroke-linejoin="round" stroke-width="1"/>
    </clipPath>
  </defs>
  <g id="Group_909" data-name="Group 909" transform="translate(2.303 1.897)">
    <g id="Group_908" data-name="Group 908" transform="translate(-2.174 -1.605)" clip-path="url(#clip-path)">
      <path id="Path_666" data-name="Path 666" d="M6.151,7A1.151,1.151,0,1,1,5,8.151,1.151,1.151,0,0,1,6.151,7" transform="translate(0.029 -1.408)" fill="none" stroke="#80b6c7" stroke-linejoin="round" stroke-width="1"/>
      <path id="Path_667" data-name="Path 667" d="M5.3,9.6A2.3,2.3,0,1,1,7.6,7.3,2.3,2.3,0,0,1,5.3,9.6m0-3.452A1.151,1.151,0,1,0,6.452,7.3,1.152,1.152,0,0,0,5.3,6.151" transform="translate(0.878 -0.558)" fill="none" stroke="#80b6c7" stroke-linecap="round" stroke-width="1"/>
      <path id="Path_668" data-name="Path 668" d="M18.151,16A1.151,1.151,0,1,1,17,17.151,1.151,1.151,0,0,1,18.151,16" transform="translate(-5.067 -5.23)" fill="none" stroke="#80b6c7" stroke-linejoin="round" stroke-width="1"/>
      <path id="Path_669" data-name="Path 669" d="M17.3,18.6a2.3,2.3,0,1,1,2.3-2.3,2.3,2.3,0,0,1-2.3,2.3m0-3.452A1.151,1.151,0,1,0,18.452,16.3,1.152,1.152,0,0,0,17.3,15.151" transform="translate(-4.218 -4.38)" fill="none" stroke="#80b6c7" stroke-linejoin="round" stroke-width="1"/>
      <path id="Path_670" data-name="Path 670" d="M23.151,2A1.151,1.151,0,1,1,22,3.151,1.151,1.151,0,0,1,23.151,2" transform="translate(-7.191 0.716)" fill="none" stroke="#80b6c7" stroke-linejoin="round" stroke-width="1"/>
      <path id="Path_671" data-name="Path 671" d="M22.3,4.6a2.3,2.3,0,1,1,2.3-2.3,2.3,2.3,0,0,1-2.3,2.3m0-3.452A1.151,1.151,0,1,0,23.452,2.3,1.152,1.152,0,0,0,22.3,1.151" transform="translate(-6.341 1.565)" fill="none" stroke="#80b6c7" stroke-linejoin="round" stroke-width="1"/>
      <path id="Path_672" data-name="Path 672" d="M14.151,31A1.151,1.151,0,1,1,13,32.151,1.151,1.151,0,0,1,14.151,31" transform="translate(-3.368 -11.6)" fill="none" stroke="#80b6c7" stroke-linejoin="round" stroke-width="1"/>
      <path id="Path_673" data-name="Path 673" d="M13.3,33.6a2.3,2.3,0,1,1,2.3-2.3,2.3,2.3,0,0,1-2.3,2.3m0-3.452A1.151,1.151,0,1,0,14.452,31.3,1.152,1.152,0,0,0,13.3,30.151" transform="translate(-2.519 -10.751)" fill="none" stroke="#80b6c7" stroke-linejoin="round" stroke-width="1"/>
      <path id="Path_674" data-name="Path 674" d="M34.151,12A1.151,1.151,0,1,1,33,13.151,1.151,1.151,0,0,1,34.151,12" transform="translate(-11.862 -3.531)" fill="none" stroke="#80b6c7" stroke-linejoin="round" stroke-width="1"/>
      <path id="Path_675" data-name="Path 675" d="M33.3,14.6a2.3,2.3,0,1,1,2.3-2.3,2.3,2.3,0,0,1-2.3,2.3m0-3.452A1.151,1.151,0,1,0,34.452,12.3,1.152,1.152,0,0,0,33.3,11.151" transform="translate(-11.013 -2.682)" fill="none" stroke="#80b6c7" stroke-linejoin="round" stroke-width="1"/>
      <path id="Path_676" data-name="Path 676" d="M3.151,21A1.151,1.151,0,1,1,2,22.151,1.151,1.151,0,0,1,3.151,21" transform="translate(1.303 -7.353)" fill="none" stroke="#80b6c7" stroke-linejoin="round" stroke-width="1"/>
      <path id="Path_677" data-name="Path 677" d="M2.3,23.6a2.3,2.3,0,1,1,2.3-2.3,2.3,2.3,0,0,1-2.3,2.3m0-3.452A1.151,1.151,0,1,0,3.452,21.3,1.152,1.152,0,0,0,2.3,20.151" transform="translate(2.152 -6.504)" fill="none" stroke="#80b6c7" stroke-linejoin="round" stroke-width="1"/>
      <path id="Path_678" data-name="Path 678" d="M29.151,27A1.151,1.151,0,1,1,28,28.151,1.151,1.151,0,0,1,29.151,27" transform="translate(-9.739 -9.901)" fill="none" stroke="#80b6c7" stroke-linejoin="round" stroke-width="1"/>
      <path id="Path_679" data-name="Path 679" d="M28.3,29.6a2.3,2.3,0,1,1,2.3-2.3,2.3,2.3,0,0,1-2.3,2.3m0-3.452A1.151,1.151,0,1,0,29.452,27.3,1.152,1.152,0,0,0,28.3,26.151" transform="translate(-8.889 -9.052)" fill="none" stroke="#80b6c7" stroke-linejoin="round" stroke-width="1"/>
    </g>
  </g>
</svg>
