<svg xmlns="http://www.w3.org/2000/svg" xmlns:xlink="http://www.w3.org/1999/xlink" width="38.15" height="30.153" viewBox="0 0 38.15 30.153">
  <defs>
    <clipPath id="clip-path">
      <rect id="Rectangle_438" data-name="Rectangle 438" width="38.15" height="30.153" transform="translate(-2 -2)" fill="#80b6c7" stroke="#80b6c7" stroke-width="0.5"/>
    </clipPath>
  </defs>
  <g id="Group_906" data-name="Group 906" transform="translate(2 2)">
    <g id="Group_907" data-name="Group 907" clip-path="url(#clip-path)">
      <path id="Path_665" data-name="Path 665" d="M34.15,12.209c-.041.183-.084.366-.123.549a5.248,5.248,0,0,1-2.285,3.391.518.518,0,0,0-.261.482A7.956,7.956,0,0,1,24.8,24.5a7.665,7.665,0,0,1-4.949-.773.363.363,0,0,0-.528.078,7.446,7.446,0,0,1-11.366-.621,7.274,7.274,0,0,1-1.44-3.5c-.008-.065-.03-.128-.055-.232-.221.027-.435.061-.651.079A5.383,5.383,0,0,1,3.266,9.218a.51.51,0,0,0,.337-.4,7.489,7.489,0,0,1,8.111-5.738c.34.035.721.222,1,.119s.457-.492.7-.738A8,8,0,0,1,26.7,5.228c.154.414.258.846.377,1.244a15.62,15.62,0,0,1,1.681-.184,5.4,5.4,0,0,1,5.324,4.6,2.153,2.153,0,0,0,.07.254ZM14.239,3.818l.37.23a7.417,7.417,0,0,1,3.7,6.3.8.8,0,0,1-.747.924c-.5.026-.8-.291-.859-.85a10.514,10.514,0,0,0-.235-1.542,5.839,5.839,0,0,0-11.4.841.908.908,0,0,1-.746.815,3.78,3.78,0,1,0,2.4,7.162.911.911,0,0,1,1.336.93,5.86,5.86,0,0,0,8.157,5.457,5.37,5.37,0,0,0,2.029-1.456c-.083-.068-.146-.114-.2-.167a7.894,7.894,0,0,1-2.1-3.2.8.8,0,0,1,.446-1.072.811.811,0,0,1,1.049.508c.038.092.065.189.105.28a6.221,6.221,0,0,0,5.552,4.009,6.1,6.1,0,0,0,5.827-3,6.363,6.363,0,0,0,.958-4.046A.789.789,0,0,1,30.48,15a1.8,1.8,0,0,0,.358-.173,3.822,3.822,0,0,0-.1-6.418,3.767,3.767,0,0,0-3.875-.046A.8.8,0,0,1,25.586,7.7c-.022-.2-.024-.4-.054-.6A6.384,6.384,0,0,0,15.784,2.6a17.52,17.52,0,0,0-1.545,1.221" transform="translate(0 0)" fill="#80b6c7" stroke="#80b6c7" stroke-width="0.5"/>
    </g>
  </g>
</svg>
