<svg id="Group_715" data-name="Group 715" xmlns="http://www.w3.org/2000/svg" xmlns:xlink="http://www.w3.org/1999/xlink" width="20.828" height="17.288" viewBox="0 0 20.828 17.288">
  <defs>
    <clipPath id="clip-path">
      <rect id="Rectangle_357" data-name="Rectangle 357" width="20.828" height="17.288" fill="#467b8b"/>
    </clipPath>
  </defs>
  <g id="Group_714" data-name="Group 714" clip-path="url(#clip-path)">
    <path id="Path_545" data-name="Path 545" d="M10.441,0a15.87,15.87,0,0,1,9.674,3.3,1.552,1.552,0,0,1,.4,2.222,1.533,1.533,0,0,1-2.241.214,12.845,12.845,0,0,0-15.754.018,1.511,1.511,0,0,1-2.207-.23,1.526,1.526,0,0,1,.362-2.2A15.892,15.892,0,0,1,10.441,0" transform="translate(0)" fill="#467b8b"/>
    <path id="Path_546" data-name="Path 546" d="M53.113,77.391a11.506,11.506,0,0,1,5.945,1.634,1.518,1.518,0,0,1-.966,2.818,1.888,1.888,0,0,1-.623-.226,8.643,8.643,0,0,0-8.784,0,1.526,1.526,0,1,1-1.53-2.637,11.656,11.656,0,0,1,5.959-1.594" transform="translate(-42.66 -71.266)" fill="#467b8b"/>
    <path id="Path_547" data-name="Path 547" d="M102.173,154.392a2.514,2.514,0,0,1,2.509,2.593,2.532,2.532,0,0,1-5.064-.087,2.508,2.508,0,0,1,2.555-2.506" transform="translate(-91.735 -142.174)" fill="#467b8b"/>
  </g>
</svg>
