<svg xmlns="http://www.w3.org/2000/svg" width="37.65" height="37.967" viewBox="0 0 37.65 37.967">
  <g id="Group_681" data-name="Group 681" transform="translate(-1592 -63.553)">
    <g id="Group_604" data-name="Group 604" transform="translate(1592 63.553)">
      <g id="Group_566" data-name="Group 566" transform="translate(0 0)">
        <path id="Path_335" data-name="Path 335" d="M4632.286,2912.821h-19.715a3.948,3.948,0,0,0-3.944,3.943v19.715a3.948,3.948,0,0,0,3.944,3.943h19.715a3.947,3.947,0,0,0,3.942-3.943v-19.715A3.947,3.947,0,0,0,4632.286,2912.821Zm2.113,23.658a2.147,2.147,0,0,1-1.978,2.1c-.046,0-.089.014-.135.014H4612.57a2.152,2.152,0,0,1-2.113-2.112v-19.715a2.07,2.07,0,0,1,.1-.6,2.105,2.105,0,0,1,2.016-1.515h19.715c.046,0,.089.011.135.013a2.146,2.146,0,0,1,1.978,2.1Z" transform="translate(-4608.627 -2902.456)" fill="#80b6c7"/>
        <circle id="Ellipse_39" data-name="Ellipse 39" cx="1.76" cy="1.76" r="1.76" transform="translate(8.167 22.054)" fill="#80b6c7"/>
        <circle id="Ellipse_40" data-name="Ellipse 40" cx="1.76" cy="1.76" r="1.76" transform="translate(16.617 22.054)" fill="#80b6c7"/>
        <path id="Path_336" data-name="Path 336" d="M4634.351,2927.983a10.57,10.57,0,0,0-10.462-10.557c-.034,0-.065,0-.1,0a10.562,10.562,0,1,0,0,21.123c.033,0,.064,0,.1,0A10.571,10.571,0,0,0,4634.351,2927.983Zm-10.561,8.731a8.731,8.731,0,1,1,8.73-8.731A8.741,8.741,0,0,1,4623.79,2936.714Z" transform="translate(-4609.988 -2903.817)" fill="#80b6c7"/>
        <path id="Path_339" data-name="Path 339" d="M8.075,0a10.437,10.437,0,0,1,7.109,3.028.775.775,0,0,1,.188.926.734.734,0,0,1-.773.43,1.148,1.148,0,0,1-.533-.271A8.86,8.86,0,0,0,9.9,1.834,9,9,0,0,0,1.408,4.1a.818.818,0,0,1-.96.217A.78.78,0,0,1,.264,3.028,10.283,10.283,0,0,1,2.348,1.443,11,11,0,0,1,8.075,0Z" transform="translate(26.167 0) rotate(42)" fill="#80b6c7"/>
        <path id="Path_340" data-name="Path 340" d="M5.517,0A7.618,7.618,0,0,1,10.56,1.806a4.591,4.591,0,0,1,.65.653.746.746,0,0,1-.093,1.051.77.77,0,0,1-1.092-.056A5.952,5.952,0,0,0,7.921,2a5.87,5.87,0,0,0-4.2-.1A5.8,5.8,0,0,0,1.368,3.441a.779.779,0,0,1-1.124.052.771.771,0,0,1,0-1.122A7.348,7.348,0,0,1,5.517,0Z" transform="translate(24.817 4.463) rotate(42)" fill="#80b6c7"/>
      </g>
    </g>
  </g>
</svg>
