<svg xmlns="http://www.w3.org/2000/svg" width="28.206" height="28.206" viewBox="0 0 28.206 28.206">
  <g id="Group_568" data-name="Group 568" transform="translate(0.15 0.15)">
    <g id="Group_565" data-name="Group 565">
      <path id="Path_335" data-name="Path 335" d="M4632.547,2912.821h-19.933a3.992,3.992,0,0,0-3.987,3.987v19.933a3.992,3.992,0,0,0,3.987,3.987h19.933a3.991,3.991,0,0,0,3.986-3.987v-19.933A3.991,3.991,0,0,0,4632.547,2912.821Zm2.136,23.919a2.168,2.168,0,0,1-2,2.121c-.046,0-.09.014-.137.014h-19.934a2.174,2.174,0,0,1-2.135-2.136v-19.933a2.1,2.1,0,0,1,.1-.6,2.129,2.129,0,0,1,2.038-1.532h19.934c.047,0,.091.011.137.013a2.168,2.168,0,0,1,2,2.122Z" transform="translate(-4608.627 -2912.821)" fill="#80b6c7" stroke="#fff" stroke-width="0.3"/>
    </g>
    <g id="Rectangle_316" data-name="Rectangle 316" transform="translate(1 20.726)" fill="#80b6c7" stroke="#80b6c7" stroke-width="0.3">
      <rect width="26" height="1" stroke="none"/>
      <rect x="-0.15" y="-0.15" width="26.3" height="1.3" fill="none"/>
    </g>
    <g id="Group_567" data-name="Group 567" transform="translate(6.408 5.843)">
      <circle id="Ellipse_39" data-name="Ellipse 39" cx="1.718" cy="1.718" r="1.718" transform="translate(5.835 8.233)" fill="#80b6c7"/>
      <path id="Path_339" data-name="Path 339" d="M7.882,0a10.186,10.186,0,0,1,6.939,2.955.756.756,0,0,1,.184.9.716.716,0,0,1-.755.42,1.122,1.122,0,0,1-.52-.265A8.647,8.647,0,0,0,9.661,1.79,8.789,8.789,0,0,0,1.374,4.005a.8.8,0,0,1-.937.212.761.761,0,0,1-.18-1.262A10.045,10.045,0,0,1,2.291,1.409,10.734,10.734,0,0,1,7.882,0Z" transform="translate(0 0)" fill="#80b6c7"/>
      <path id="Path_340" data-name="Path 340" d="M5.385,0a7.436,7.436,0,0,1,4.922,1.763,4.487,4.487,0,0,1,.634.638.729.729,0,0,1-.09,1.026.752.752,0,0,1-1.065-.055A5.81,5.81,0,0,0,7.732,1.956a5.728,5.728,0,0,0-4.1-.1,5.653,5.653,0,0,0-2.3,1.5.761.761,0,0,1-1.1.05.753.753,0,0,1,0-1.1A7.172,7.172,0,0,1,5.385,0Z" transform="translate(1.934 4.119)" fill="#80b6c7"/>
    </g>
  </g>
</svg>
