<svg xmlns="http://www.w3.org/2000/svg" width="39.81" height="50.934" viewBox="0 0 39.81 50.934">
  <g id="Group_662" data-name="Group 662" transform="translate(-362.046 -76.6)">
    <g id="Group_515" data-name="Group 515" transform="translate(362.612 77)">
      <g id="drop" transform="translate(0 0)">
        <path id="Path_294" data-name="Path 294" d="M70.078,50.134a19.624,19.624,0,0,1-16.868-9.85,17.55,17.55,0,0,1-.118-17.753.127.127,0,0,1,.118-.118L68.663.767a1.69,1.69,0,0,1,2.831,0L86.947,22.413c.059.059.059.118.118.118a17.549,17.549,0,0,1-.118,17.753A19.625,19.625,0,0,1,70.078,50.134ZM56.1,24.359a13.848,13.848,0,0,0,.177,14.155,15.827,15.827,0,0,0,27.6,0,13.848,13.848,0,0,0,.177-14.155L70.078,4.836Z" transform="translate(-50.739)" fill="#126883" stroke="#e8faff" stroke-width="0.8"/>
        <path id="Path_295" data-name="Path 295" d="M207.092,271.008a1.769,1.769,0,0,1,0-3.539,7.627,7.627,0,0,0,7.609-7.608,1.769,1.769,0,1,1,3.539,0A11.176,11.176,0,0,1,207.092,271.008Z" transform="translate(-187.872 -228.954)" fill="#126883" stroke="#e8faff" stroke-width="1"/>
      </g>
    </g>
  </g>
</svg>
