<svg xmlns="http://www.w3.org/2000/svg" width="21.326" height="40.001" viewBox="0 0 21.326 40.001">
  <g id="Group_902" data-name="Group 902" transform="translate(-190.75 -74.75)">
    <g id="Group_521" data-name="Group 521" transform="translate(191 75)">
      <path id="Path_306" data-name="Path 306" d="M4645.676,2934.971c-.112-.52-.229-1.056-.39-1.566a9.6,9.6,0,0,0-2.4-3.946,1.183,1.183,0,0,1-.379-.923v-3.252c.005-3.952.005-4.639-.006-10.489a7.1,7.1,0,0,0-7.041-7.151h-.055a7.106,7.106,0,0,0-7.1,7.041v.06c-.008,5.286-.008,6.337-.006,9.417l.006,4.288a1.453,1.453,0,0,1-.43,1.079,10.43,10.43,0,0,0,5.7,17.447c.207.042.412.08.618.117l.291.053h1.807a2.775,2.775,0,0,1,.31-.075,10.443,10.443,0,0,0,8.976-8.111c.068-.289.124-.578.178-.867l.075-.392V2935.7C4645.783,2935.462,4645.729,2935.216,4645.676,2934.971Zm-4.111,6.723,0,.005h-.006a7.892,7.892,0,0,1-3.96,2.616,7.482,7.482,0,0,1-8.267-2.536,7.853,7.853,0,0,1,.907-11.054l.088-.075a1.2,1.2,0,0,0,.493-1.042c-.023-3.857-.032-11.186-.006-14.868a4.611,4.611,0,0,1,4.587-4.635h.026a4.61,4.61,0,0,1,4.609,4.587v.244c0,7.293,0,7.293-.008,14.162v.642a.948.948,0,0,0,.384.812A7.922,7.922,0,0,1,4641.564,2941.693Z" transform="translate(-4625.014 -2907.644)" fill="#80b6c7" stroke="#fff" stroke-width="0.5"/>
      <path id="Path_307" data-name="Path 307" d="M4637.192,2932.109v0a.705.705,0,0,1-.521-.8c.007-6.107.005-7.524.005-11.58V2916h-.017c-.041-.736-.38-1.2-1.154-1.2a1.3,1.3,0,0,0-.213,0,1.215,1.215,0,0,0-1.091,1.2h-.01v.1c0,.016-.006.029,0,.045,0,.037-.007.074-.007.11a1.266,1.266,0,0,0,.012.149v.048c0,7.844,0,6.942.008,14.786a.809.809,0,0,1-.613.913,4.951,4.951,0,1,0,3.607-.038Zm-1.748,7.086h-.015a2.47,2.47,0,0,1-.008-4.94h.009a2.471,2.471,0,0,1,.014,4.94Z" transform="translate(-4625.028 -2907.663)" fill="#80b6c7"/>
    </g>
  </g>
</svg>
