<svg xmlns="http://www.w3.org/2000/svg" width="13.002" height="23.428" viewBox="0 0 13.002 23.428"><g transform="translate(0.527 0.519)"><path d="M462.215,1037l2.823,2.82q3.482,3.481,6.965,6.963a.88.88,0,0,1,.339.678.717.717,0,0,1-.448.66.7.7,0,0,1-.83-.161c-.355-.346-.7-.7-1.052-1.049l-9.292-9.292a.769.769,0,0,1-.013-1.239q5.129-5.13,10.263-10.256a1.267,1.267,0,0,1,.48-.306.708.708,0,0,1,.795.348.739.739,0,0,1-.091.866c-.249.272-.515.528-.776.789l-8.984,8.981C462.34,1036.855,462.291,1036.914,462.215,1037Z" transform="translate(-460.401 -1025.789)" fill="#fa7a93" stroke="#fa7a93" stroke-width="1"/></g></svg>