<svg xmlns="http://www.w3.org/2000/svg" width="23.107" height="37.8" viewBox="0 0 23.107 37.8">
  <g id="Group_674" data-name="Group 674" transform="translate(-1835.933 -74.405)">
    <g id="Group_600" data-name="Group 600" transform="translate(1835.934 74.405)">
      <g id="Group_574" data-name="Group 574">
        <g id="Group_572" data-name="Group 572" transform="translate(0)">
          <path id="Path_264" data-name="Path 264" d="M-938.738,1025.126a3.54,3.54,0,0,1,.615-.27,1.026,1.026,0,0,1,1.262.984c.021,1.194.028,2.39,0,3.584a1.039,1.039,0,0,1-1.613.83c-.07-.043-.136-.094-.263-.182,0,.206,0,.349,0,.493q0,3.38,0,6.759a4.667,4.667,0,0,1-2.167,4.066.8.8,0,0,0-.264.487c-.384,2.141-.752,4.286-1.127,6.428a1.043,1.043,0,0,1-1.152.974q-5.787,0-11.574,0a1.065,1.065,0,0,1-1.176-.995q-.556-3.216-1.125-6.429a.556.556,0,0,0-.232-.339,4.633,4.633,0,0,1-2.393-4.265q.019-6.908,0-13.816a4.6,4.6,0,0,1,2.362-4.171.65.65,0,0,0,.263-.4c.383-2.129.75-4.261,1.122-6.392a1.074,1.074,0,0,1,1.182-.995q5.768,0,11.536,0a1.068,1.068,0,0,1,1.183.99c.376,2.156.746,4.312,1.135,6.465a.8.8,0,0,0,.294.465,4.665,4.665,0,0,1,2.13,3.937C-938.73,1023.925-938.738,1024.509-938.738,1025.126Zm-2.126,5.284q0-3.492,0-6.983a2.471,2.471,0,0,0-2.616-2.622q-5.843,0-11.686,0a2.489,2.489,0,0,0-2.672,2.685q0,6.927,0,13.854a2.481,2.481,0,0,0,2.585,2.625q5.862.013,11.723,0a2.48,2.48,0,0,0,2.665-2.691Q-940.859,1033.846-940.864,1030.41Zm-14.266-11.743h11.772l-.881-5.051h-10.014Zm0,23.446.88,5.05h10.008l.882-5.05Z" transform="translate(959.949 -1011.481)" fill="#80b6c7"/>
        </g>
        <g id="Group_573" data-name="Group 573" transform="translate(5.264 13.989)">
          <circle id="Ellipse_39" data-name="Ellipse 39" cx="1.225" cy="1.225" r="1.225" transform="translate(4.161 6.44)" fill="#80b6c7" stroke="#80b6c7" stroke-width="0.5"/>
          <path id="Path_339" data-name="Path 339" d="M5.621,0a7.264,7.264,0,0,1,4.948,2.107.539.539,0,0,1,.131.644.511.511,0,0,1-.538.3.8.8,0,0,1-.371-.189,6.166,6.166,0,0,0-2.9-1.586A6.267,6.267,0,0,0,.98,2.856a.569.569,0,0,1-.668.151.543.543,0,0,1-.128-.9A7.163,7.163,0,0,1,1.634,1,7.655,7.655,0,0,1,5.621,0Z" transform="translate(0 0)" fill="#80b6c7" stroke="#80b6c7" stroke-width="0.5"/>
          <path id="Path_340" data-name="Path 340" d="M3.84,0A5.3,5.3,0,0,1,7.35,1.257a3.2,3.2,0,0,1,.452.455.52.52,0,0,1-.064.731.536.536,0,0,1-.76-.039A4.143,4.143,0,0,0,5.514,1.395a4.085,4.085,0,0,0-2.923-.068A4.032,4.032,0,0,0,.952,2.4a.542.542,0,0,1-.782.036.537.537,0,0,1,0-.781A5.114,5.114,0,0,1,3.84,0Z" transform="translate(1.379 3.228)" fill="#80b6c7" stroke="#80b6c7" stroke-width="0.5"/>
        </g>
      </g>
    </g>
  </g>
</svg>
