<svg id="Group_717" data-name="Group 717" xmlns="http://www.w3.org/2000/svg" xmlns:xlink="http://www.w3.org/1999/xlink" width="17.38" height="25.006" viewBox="0 0 17.38 25.006">
  <defs>
    <clipPath id="clip-path">
      <rect id="Rectangle_358" data-name="Rectangle 358" width="17.38" height="25.006" fill="#467b8b"/>
    </clipPath>
  </defs>
  <g id="Group_716" data-name="Group 716" clip-path="url(#clip-path)">
    <path id="Path_548" data-name="Path 548" d="M7.981,0h1.4a3.307,3.307,0,0,0,.332.085A6.4,6.4,0,0,1,15.077,5.45,37.21,37.21,0,0,1,15.2,9.269c0,.163,0,.327,0,.481a2.376,2.376,0,0,1,2.182,2.718c-.049,3.359-.015,6.719-.016,10.078a2.205,2.205,0,0,1-2.457,2.46H2.461A2.206,2.206,0,0,1,0,22.546q0-3.867,0-7.734c0-.99-.018-1.98.015-2.968A2.11,2.11,0,0,1,1.811,9.826c.113-.019.225-.045.36-.071,0-1.034-.007-2.049,0-3.063A6.514,6.514,0,0,1,7.153.188C7.428.12,7.705.063,7.981,0M2.192,22.8H15.169V11.983H2.192ZM12.981,9.764c0-1.3.08-2.571-.018-3.823a4.259,4.259,0,0,0-4.244-3.76,4.262,4.262,0,0,0-4.307,3.69c-.118,1.265-.048,2.548-.06,3.822,0,.02.03.039.056.071Z" transform="translate(0)" fill="#467b8b"/>
  </g>
</svg>
