<svg xmlns="http://www.w3.org/2000/svg" xmlns:xlink="http://www.w3.org/1999/xlink" width="13.637" height="19.621" viewBox="0 0 13.637 19.621">
  <defs>
    <clipPath id="clip-path">
      <rect id="Rectangle_358" data-name="Rectangle 358" width="13.637" height="19.621" fill="#818181"/>
    </clipPath>
  </defs>
  <g id="Group_731" data-name="Group 731" transform="translate(-282.039 -236.692)">
    <g id="Group_729" data-name="Group 729" transform="translate(282.039 236.692)">
      <g id="Group_716" data-name="Group 716" clip-path="url(#clip-path)">
        <path id="Path_548" data-name="Path 548" d="M6.263,0h1.1a2.6,2.6,0,0,0,.261.067,5.025,5.025,0,0,1,4.2,4.209,29.2,29.2,0,0,1,.094,3c0,.128,0,.256,0,.377a1.864,1.864,0,0,1,1.712,2.133c-.038,2.635-.012,5.272-.013,7.908a1.731,1.731,0,0,1-1.928,1.93H1.931A1.731,1.731,0,0,1,0,17.691q0-3.034,0-6.069c0-.776-.014-1.554.012-2.329A1.655,1.655,0,0,1,1.421,7.71c.089-.015.176-.035.282-.056,0-.812-.006-1.608,0-2.4A5.111,5.111,0,0,1,5.613.148c.215-.054.433-.1.65-.148M1.72,17.887H11.9V9.4H1.72ZM10.186,7.662c0-1.024.063-2.017-.014-3a3.342,3.342,0,0,0-3.33-2.951,3.344,3.344,0,0,0-3.379,2.9c-.093.993-.038,2-.047,3,0,.015.024.031.044.055Z" transform="translate(0)" fill="#818181"/>
      </g>
    </g>
    <path id="Path_555" data-name="Path 555" d="M-15765.912-4121.615h8.758l-.323,9.737-10.8.25-1.023-.63v-8.838a8.165,8.165,0,0,0,1.023-.519A21.081,21.081,0,0,1-15765.912-4121.615Z" transform="translate(16052 4367)" fill="#818181"/>
  </g>
</svg>
