<svg xmlns="http://www.w3.org/2000/svg" width="24.006" height="15.815" viewBox="0 0 24.006 15.815">
  <g id="Group_719" data-name="Group 719" transform="translate(2.42 1.594)">
    <g id="Group_720" data-name="Group 720" transform="translate(-2.42 -1.594)">
      <path id="Path_549" data-name="Path 549" d="M0,8.3V7.4c.179-.263.369-.518.534-.789A13.281,13.281,0,0,1,23.7,6.969a1.423,1.423,0,0,1,.154,1.475C19.495,16.619,9.7,17.965,3.5,12.628A19.388,19.388,0,0,1,0,8.3m12.011,5.133a10.768,10.768,0,0,0,9.127-5.153,1.012,1.012,0,0,0-.022-.9,10.794,10.794,0,0,0-18.239.069.934.934,0,0,0,.006.839,10.865,10.865,0,0,0,9.128,5.149" transform="translate(0 0)" fill="#467b8b"/>
      <path id="Path_550" data-name="Path 550" d="M56.893,25.972a3.208,3.208,0,0,1,3.235,3.209,3.225,3.225,0,0,1-6.45.018,3.2,3.2,0,0,1,3.215-3.227m.039,1.981a1.218,1.218,0,0,0-1.269,1.221,1.239,1.239,0,1,0,2.478,0,1.22,1.22,0,0,0-1.209-1.221" transform="translate(-44.893 -21.358)" fill="#467b8b"/>
    </g>
  </g>
</svg>
