<svg id="Group_746" data-name="Group 746" xmlns="http://www.w3.org/2000/svg" xmlns:xlink="http://www.w3.org/1999/xlink" width="20.369" height="20.379" viewBox="0 0 20.369 20.379">
  <defs>
    <clipPath id="clip-path">
      <rect id="Rectangle_365" data-name="Rectangle 365" width="20.369" height="20.379" fill="#fff"/>
    </clipPath>
  </defs>
  <g id="Group_745" data-name="Group 745" clip-path="url(#clip-path)">
    <path id="Path_556" data-name="Path 556" d="M3.177,12.34c-.412-.057-.732-.1-1.05-.148a.821.821,0,0,1-.78-.894.766.766,0,0,1,.948-.686c1,.115,2.007.257,3.007.411a.779.779,0,0,1,.664.932c-.128.988-.267,1.974-.425,2.957a.793.793,0,1,1-1.567-.221A4.034,4.034,0,0,0,4,13.812c-.261.315-.542.615-.78.946a8.6,8.6,0,0,0,5.721,13.5c.419.062.846.073,1.27.1.556.029.871.3.878.773a.785.785,0,0,1-.9.814,9.924,9.924,0,0,1-4-.822A10.176,10.176,0,0,1,2.915,12.627c.067-.069.13-.142.263-.287" transform="translate(0 -9.563)" fill="#fff"/>
    <path id="Path_557" data-name="Path 557" d="M102.543,17.617c.429.064.769.1,1.1.167a.8.8,0,0,1,.728.928.786.786,0,0,1-.942.641q-1.506-.188-3.006-.419a.769.769,0,0,1-.668-.925q.191-1.457.417-2.909a.819.819,0,0,1,.889-.786c.472.054.735.437.683,1-.023.253-.056.5-.1.874a8.409,8.409,0,0,0,2.115-3.585A8.6,8.6,0,0,0,95.6,1.588c-.6-.02-.915-.246-.964-.688-.059-.534.3-.905.9-.9a10.2,10.2,0,0,1,7.283,17.3c-.077.08-.148.164-.285.316" transform="translate(-85.352 0)" fill="#fff"/>
  </g>
</svg>
